<?xml version="1.0" encoding="UTF-8" standalone="no" ?>
<!DOCTYPE svg PUBLIC "-//W3C//DTD SVG 1.1//EN" "http://www.w3.org/Graphics/SVG/1.1/DTD/svg11.dtd">
<svg xmlns="http://www.w3.org/2000/svg" xmlns:xlink="http://www.w3.org/1999/xlink" version="1.1" width="261.239476561713" height="270.261339924954" viewBox="0 0 261.24 270.26" xml:space="preserve">
<desc>Created with Fabric.js 2.3.6</desc>
<defs>
</defs>
<path id="icon-1" d="M 199.166 29.696 c 0.34 0.214 0.696 0.441 1.065 0.68 c 3.062 1.979 6.956 4.65 11.254 8.334 a 114.2 114.2 0 0 1 8.789 8.132 c 7.34 7.556 12.55 14.875 16.338 21.25 c 3.788 6.375 6.156 11.57 7.577 15.112 c 2.13 3.305 2.604 5.43 2.604 5.43 s -0.71 -1.889 -2.367 -5.43 c -1.369 -2.925 -3.222 -6.976 -5.96 -11.756 c 3.324 6.114 6.155 12.757 8.355 19.506 c 3.277 10.057 5.15 20.582 5.384 30.64 c 0.469 10.057 -0.702 19.179 -2.34 26.898 c -1.64 7.718 -4.215 13.8 -6.088 18.01 c -2.107 3.975 -3.746 6.08 -4.448 5.847 c -0.702 -0.468 -0.234 -2.807 0.936 -7.251 c 1.171 -4.21 2.81 -10.291 4.215 -17.776 c 1.404 -7.485 2.34 -16.139 2.107 -25.494 c -0.235 -9.356 -1.64 -19.413 -4.449 -29.237 c -2.81 -9.823 -6.79 -19.18 -11.94 -27.6 c -4.916 -8.42 -10.535 -15.436 -16.154 -21.284 a 117.421 117.421 0 0 0 -12.528 -11.29 a 116.58 116.58 0 0 0 -9.893 -5.88 c -11.602 -6.14 -25.335 -10.861 -40.726 -12.514 c -15.154 -1.653 -31.966 -0.472 -48.54 4.722 c -16.338 5.194 -32.44 14.639 -45.936 27.861 c -13.26 13.222 -23.915 30.223 -29.598 49.348 s -5.92 38.958 -1.894 57.375 c 4.025 18.416 12.55 34.708 23.678 48.167 C 59.5 214.718 72.996 224.87 86.73 231.718 c 13.733 6.847 27.94 10.153 40.963 11.333 c 13.023 1.18 25.1 0 35.044 -2.36 c 10.182 -2.126 18.706 -5.431 25.336 -8.737 c 6.63 -3.07 11.365 -6.139 14.68 -8.264 c 3.315 -2.125 4.972 -3.306 4.972 -3.306 s -1.42 1.417 -4.735 3.778 c -3.078 2.361 -8.05 5.43 -14.68 8.736 c -6.63 3.306 -15.155 6.848 -25.336 9.209 c -10.182 2.36 -22.258 3.778 -35.518 2.597 c -13.26 -0.944 -27.703 -4.486 -41.673 -11.333 c -13.97 -6.848 -27.704 -17 -39.07 -30.459 a 118.191 118.191 0 0 1 -14.68 -22.43 c -4.025 -8.264 -7.34 -17 -9.47 -26.445 c -4.263 -18.653 -3.79 -38.958 1.893 -58.556 C 30.138 75.884 41.03 58.648 54.527 45.19 C 68.26 31.73 84.598 22.287 101.409 16.856 c 16.812 -5.43 33.86 -6.375 49.251 -4.486 c 15.628 1.889 29.598 6.611 41.2 12.986 a 126.333 126.333 0 0 1 7.306 4.34 z M 11.531 114.577 s 0.234 -3.04 1.17 -8.42 c 0.937 -5.614 2.576 -13.566 6.322 -23.39 c 3.746 -9.823 9.599 -21.284 18.495 -32.744 c 8.897 -11.461 21.305 -22.922 37.225 -31.81 A 129.482 129.482 0 0 1 100.73 7.22 c 9.365 -2.807 19.432 -4.444 29.733 -4.912 c 10.302 -0.467 21.071 0.234 31.84 2.573 c 10.77 2.34 21.306 5.848 31.607 10.993 c 10.067 5.146 19.666 11.929 28.328 19.881 c 8.663 7.952 16.154 17.308 22.476 27.6 c 6.32 10.29 11.003 21.518 14.047 33.212 c 3.043 11.695 4.448 24.091 4.214 36.254 a 118.94 118.94 0 0 1 -6.321 36.02 c -3.746 11.694 -9.365 22.687 -16.155 32.51 c -6.789 9.824 -14.983 18.712 -24.348 26.43 c -9.13 7.485 -19.198 13.566 -29.733 18.244 c -10.535 4.678 -21.539 7.718 -32.543 9.356 c -11.003 1.637 -22.007 1.637 -32.308 0.467 c -10.535 -1.17 -20.603 -3.508 -29.967 -7.016 c -9.365 -3.509 -18.027 -7.719 -25.753 -12.865 c -15.452 -10.057 -27.158 -22.687 -35.587 -34.85 c -8.428 -12.396 -13.344 -24.558 -16.154 -34.85 c -2.81 -10.29 -3.746 -18.711 -3.98 -24.324 c -0.234 -5.614 0.234 -8.655 0.703 -8.655 c 0.468 0 0.936 3.041 2.107 8.42 c 0.936 5.38 2.575 13.333 5.853 23.156 c 3.277 9.59 8.428 21.05 16.856 32.511 c 8.194 11.46 19.432 23.156 34.182 32.511 c 7.257 4.678 15.451 8.654 24.348 11.929 c 8.897 3.274 18.261 5.38 28.094 6.549 c 9.833 0.935 20.135 0.935 30.436 -0.468 c 10.301 -1.403 20.602 -4.444 30.67 -8.654 c 19.9 -8.654 38.16 -22.922 51.271 -41.633 c 6.556 -9.356 11.94 -19.647 15.452 -30.64 c 3.746 -10.993 5.853 -22.454 6.322 -34.148 c 0.468 -11.695 -0.703 -23.39 -3.512 -34.616 a 118.457 118.457 0 0 0 -13.11 -31.81 c -5.854 -9.823 -13.112 -18.945 -21.072 -26.664 c -8.194 -7.718 -17.324 -14.267 -26.923 -19.413 c -9.6 -5.145 -19.9 -8.888 -30.202 -11.227 c -10.3 -2.339 -20.836 -3.274 -30.903 -3.04 c -10.068 0.234 -19.9 1.87 -29.031 4.444 c -9.13 2.573 -17.793 6.08 -25.52 10.291 c -15.685 8.42 -28.093 19.413 -37.224 30.64 c -9.13 11.227 -15.218 22.454 -18.964 32.043 c -3.98 9.59 -5.853 17.776 -6.79 23.156 c -1.17 4.911 -1.404 7.952 -1.638 7.952 z m 240.206 77.886 s -1.405 2.807 -4.214 7.719 c -2.81 4.678 -7.024 11.227 -13.345 18.477 c -6.087 7.017 -14.281 14.736 -24.114 21.752 c -9.833 6.783 -21.305 12.865 -33.48 17.075 c -12.173 4.21 -25.05 6.549 -37.224 7.016 c -12.174 0.468 -23.412 -0.701 -33.01 -2.806 c -9.366 -1.871 -17.092 -4.912 -22.242 -7.251 c -5.15 -2.339 -7.96 -4.444 -7.726 -4.912 c 0.234 -0.701 3.278 0.468 8.428 2.105 c 5.15 1.638 12.643 3.976 22.007 5.848 c 9.365 1.87 20.369 3.04 32.075 2.572 c 11.706 -0.233 24.348 -2.339 36.288 -6.08 c 11.94 -3.743 23.412 -9.123 33.245 -15.672 c 9.833 -6.315 18.027 -13.8 24.583 -20.582 c 6.555 -6.783 11.237 -13.098 14.28 -17.776 a 782.511 782.511 0 0 0 4.45 -7.485 z" style="stroke: none; stroke-width: 1; stroke-dasharray: none; stroke-linecap: butt; stroke-linejoin: miter; stroke-miterlimit: 4; fill: rgb(255,255,255); fill-rule: nonzero; opacity: 1;" transform="translate(130.62 135.13) scale(0.95 0.95) translate(-136.53191093676807, -133.3879999560204) " stroke-linecap="round" />
	<g id="text-1" transform="translate(130.53 110.13)">
		<text xml:space="preserve" font-family="Montserrat" font-size="88" font-style="normal" font-weight="normal" style="stroke: none; stroke-width: 0; stroke-dasharray: none; stroke-linecap: butt; stroke-linejoin: miter; stroke-miterlimit: 4; fill: rgb(5,230,242); fill-rule: nonzero; opacity: 1; white-space: pre;" ><tspan x="-51.02" y="27.64" >L</tspan><tspan x="-4.73" y="27.64" >1</tspan><tspan x="27.92" y="27.64" style="white-space: pre; "> </tspan></text>
	</g>
	<g id="text-2" transform="translate(127.57 165.12)">
		<text xml:space="preserve" font-family="Cinzel" font-size="9" font-style="normal" font-weight="normal" style="stroke: none; stroke-width: 0; stroke-dasharray: none; stroke-linecap: butt; stroke-linejoin: miter; stroke-miterlimit: 4; fill: rgb(5,230,242); fill-rule: nonzero; opacity: 1; white-space: pre;" ><tspan x="-48.06" y="2.83" >A</tspan><tspan x="-41.64" y="2.83" >s</tspan><tspan x="-37.47" y="2.83" >s</tspan><tspan x="-33.3" y="2.83" >e</tspan><tspan x="-28.38" y="2.83" >s</tspan><tspan x="-24.21" y="2.83" >s</tspan><tspan x="-20.04" y="2.83" >o</tspan><tspan x="-13.19" y="2.83" >r</tspan><tspan x="-7.54" y="2.83" >i</tspan><tspan x="-4.51" y="2.83" >a</tspan><tspan x="1.46" y="2.83" style="white-space: pre; "> </tspan><tspan x="3.72" y="2.83" >C</tspan><tspan x="10.57" y="2.83" >o</tspan><tspan x="17.51" y="2.83" >n</tspan><tspan x="24.54" y="2.83" >t</tspan><tspan x="29.11" y="2.83" >รก</tspan><tspan x="35.08" y="2.83" >b</tspan><tspan x="40.22" y="2.83" >i</tspan><tspan x="43.25" y="2.83" >l</tspan></text>
	</g>
</svg>